<?xml version="1.0" encoding="UTF-8" standalone="no"?>
<!DOCTYPE svg PUBLIC "-//W3C//DTD SVG 1.1//EN"
 "http://www.w3.org/Graphics/SVG/1.1/DTD/svg11.dtd">
<!-- Generated by graphviz version 2.43.0 (0)
 -->
<!-- Title: G Pages: 1 -->
<svg width="1123pt" height="448pt"
 viewBox="0.00 0.00 1123.00 448.00" xmlns="http://www.w3.org/2000/svg" xmlns:xlink="http://www.w3.org/1999/xlink">
<g id="graph0" class="graph" transform="scale(1 1) rotate(0) translate(4 444)">
<title>G</title>
<polygon fill="white" stroke="transparent" points="-4,4 -4,-444 1119,-444 1119,4 -4,4"/>
<text text-anchor="middle" x="557.5" y="-6.4" font-family="Verdana" font-size="7.00" fill="#000000" fill-opacity="0.498039">Generated by Python Call Graph v1.1.3</text>
<g id="clust1" class="cluster">
<title>cluster___main__</title>
<polygon fill="none" stroke="#000000" stroke-width="2" stroke-opacity="0.800000" points="961,-361 961,-432 1045,-432 1045,-361 961,-361"/>
<text text-anchor="middle" x="1003" y="-420" font-family="Verdana" font-size="10.00">__main__</text>
</g>
<g id="clust2" class="cluster">
<title>cluster_pymatlib</title>
<polygon fill="none" stroke="#000000" stroke-width="2" stroke-opacity="0.800000" points="8,-24 8,-335 1107,-335 1107,-24 8,-24"/>
<text text-anchor="middle" x="557.5" y="-323" font-family="Verdana" font-size="10.00">pymatlib</text>
</g>
<!-- __main__ -->
<g id="node1" class="node">
<title>__main__</title>
<polygon fill="#e5e5e5" stroke="#e5e5e5" points="1036.5,-405 969.5,-405 969.5,-369 1036.5,-369 1036.5,-405"/>
<text text-anchor="middle" x="1003" y="-393.4" font-family="Verdana" font-size="7.00" fill="#000000">__main__</text>
<text text-anchor="middle" x="1003" y="-385.4" font-family="Verdana" font-size="7.00" fill="#000000">calls: 1</text>
<text text-anchor="middle" x="1003" y="-377.4" font-family="Verdana" font-size="7.00" fill="#000000">time: 0.000000s</text>
</g>
<!-- pymatlib.core.interpolators.InterpolationArrayContainer.__init__ -->
<g id="node5" class="node">
<title>pymatlib.core.interpolators.InterpolationArrayContainer.__init__</title>
<polygon fill="#e5e5e5" stroke="#e5e5e5" points="1032,-228 820,-228 820,-192 1032,-192 1032,-228"/>
<text text-anchor="middle" x="926" y="-216.4" font-family="Verdana" font-size="7.00" fill="#000000">pymatlib.core.interpolators.InterpolationArrayContainer.__init__</text>
<text text-anchor="middle" x="926" y="-208.4" font-family="Verdana" font-size="7.00" fill="#000000">calls: 3</text>
<text text-anchor="middle" x="926" y="-200.4" font-family="Verdana" font-size="7.00" fill="#000000">time: 0.009421s</text>
</g>
<!-- __main__&#45;&gt;pymatlib.core.interpolators.InterpolationArrayContainer.__init__ -->
<g id="edge2" class="edge">
<title>__main__&#45;&gt;pymatlib.core.interpolators.InterpolationArrayContainer.__init__</title>
<path fill="none" stroke="#b2b2b2" d="M1008.49,-368.7C1014.83,-345.38 1022.56,-303.19 1007,-272 999.05,-256.07 984.74,-243.2 970.33,-233.47"/>
<polygon fill="#b2b2b2" stroke="#b2b2b2" points="972.2,-230.51 961.89,-228.1 968.45,-236.42 972.2,-230.51"/>
<text text-anchor="middle" x="1018" y="-288.4" font-family="Verdana" font-size="7.00" fill="#000000">2</text>
</g>
<!-- pymatlib.core.interpolators.from_material -->
<g id="node19" class="node">
<title>pymatlib.core.interpolators.from_material</title>
<polygon fill="#e5e5e5" stroke="#e5e5e5" points="998,-308 854,-308 854,-272 998,-272 998,-308"/>
<text text-anchor="middle" x="926" y="-296.4" font-family="Verdana" font-size="7.00" fill="#000000">pymatlib.core.interpolators.from_material</text>
<text text-anchor="middle" x="926" y="-288.4" font-family="Verdana" font-size="7.00" fill="#000000">calls: 1</text>
<text text-anchor="middle" x="926" y="-280.4" font-family="Verdana" font-size="7.00" fill="#000000">time: 0.005734s</text>
</g>
<!-- __main__&#45;&gt;pymatlib.core.interpolators.from_material -->
<g id="edge3" class="edge">
<title>__main__&#45;&gt;pymatlib.core.interpolators.from_material</title>
<path fill="none" stroke="#b2b2b2" d="M988.88,-368.58C977.05,-353.98 960,-332.95 946.64,-316.46"/>
<polygon fill="#b2b2b2" stroke="#b2b2b2" points="949.05,-313.88 940.03,-308.31 943.61,-318.29 949.05,-313.88"/>
<text text-anchor="middle" x="975" y="-345.4" font-family="Verdana" font-size="7.00" fill="#000000">1</text>
</g>
<!-- pymatlib.core.interpolators.&lt;module&gt; -->
<g id="node2" class="node">
<title>pymatlib.core.interpolators.&lt;module&gt;</title>
<polygon fill="#9996e5" stroke="#9996e5" points="684.5,-308 553.5,-308 553.5,-272 684.5,-272 684.5,-308"/>
<text text-anchor="middle" x="619" y="-296.4" font-family="Verdana" font-size="7.00" fill="#000000">pymatlib.core.interpolators.&lt;module&gt;</text>
<text text-anchor="middle" x="619" y="-288.4" font-family="Verdana" font-size="7.00" fill="#000000">calls: 1</text>
<text text-anchor="middle" x="619" y="-280.4" font-family="Verdana" font-size="7.00" fill="#000000">time: 5.402472s</text>
</g>
<!-- pymatlib.core.interpolators.InterpolationArrayContainer -->
<g id="node4" class="node">
<title>pymatlib.core.interpolators.InterpolationArrayContainer</title>
<polygon fill="#e5e5e5" stroke="#e5e5e5" points="772,-228 586,-228 586,-192 772,-192 772,-228"/>
<text text-anchor="middle" x="679" y="-216.4" font-family="Verdana" font-size="7.00" fill="#000000">pymatlib.core.interpolators.InterpolationArrayContainer</text>
<text text-anchor="middle" x="679" y="-208.4" font-family="Verdana" font-size="7.00" fill="#000000">calls: 1</text>
<text text-anchor="middle" x="679" y="-200.4" font-family="Verdana" font-size="7.00" fill="#000000">time: 0.000010s</text>
</g>
<!-- pymatlib.core.interpolators.&lt;module&gt;&#45;&gt;pymatlib.core.interpolators.InterpolationArrayContainer -->
<g id="edge1" class="edge">
<title>pymatlib.core.interpolators.&lt;module&gt;&#45;&gt;pymatlib.core.interpolators.InterpolationArrayContainer</title>
<path fill="none" stroke="#b2b2b2" d="M632.32,-271.69C640.32,-261.29 650.64,-247.87 659.54,-236.29"/>
<polygon fill="#b2b2b2" stroke="#b2b2b2" points="662.4,-238.32 665.72,-228.26 656.85,-234.05 662.4,-238.32"/>
<text text-anchor="middle" x="652" y="-248.4" font-family="Verdana" font-size="7.00" fill="#000000">1</text>
</g>
<!-- pymatlib.core.data_handler.&lt;module&gt; -->
<g id="node3" class="node">
<title>pymatlib.core.data_handler.&lt;module&gt;</title>
<polygon fill="#9996e5" stroke="#9996e5" points="835.5,-308 702.5,-308 702.5,-272 835.5,-272 835.5,-308"/>
<text text-anchor="middle" x="769" y="-296.4" font-family="Verdana" font-size="7.00" fill="#000000">pymatlib.core.data_handler.&lt;module&gt;</text>
<text text-anchor="middle" x="769" y="-288.4" font-family="Verdana" font-size="7.00" fill="#000000">calls: 1</text>
<text text-anchor="middle" x="769" y="-280.4" font-family="Verdana" font-size="7.00" fill="#000000">time: 5.395197s</text>
</g>
<!-- pymatlib.core.interpolators.prepare_interpolation_arrays -->
<g id="node6" class="node">
<title>pymatlib.core.interpolators.prepare_interpolation_arrays</title>
<polygon fill="#e5e5e5" stroke="#e5e5e5" points="926.5,-148 737.5,-148 737.5,-112 926.5,-112 926.5,-148"/>
<text text-anchor="middle" x="832" y="-136.4" font-family="Verdana" font-size="7.00" fill="#000000">pymatlib.core.interpolators.prepare_interpolation_arrays</text>
<text text-anchor="middle" x="832" y="-128.4" font-family="Verdana" font-size="7.00" fill="#000000">calls: 3</text>
<text text-anchor="middle" x="832" y="-120.4" font-family="Verdana" font-size="7.00" fill="#000000">time: 0.009315s</text>
</g>
<!-- pymatlib.core.interpolators.InterpolationArrayContainer.__init__&#45;&gt;pymatlib.core.interpolators.prepare_interpolation_arrays -->
<g id="edge4" class="edge">
<title>pymatlib.core.interpolators.InterpolationArrayContainer.__init__&#45;&gt;pymatlib.core.interpolators.prepare_interpolation_arrays</title>
<path fill="none" stroke="#b2b2b2" d="M905.14,-191.69C892.12,-180.88 875.17,-166.82 860.87,-154.95"/>
<polygon fill="#b2b2b2" stroke="#b2b2b2" points="862.73,-151.95 852.8,-148.26 858.26,-157.34 862.73,-151.95"/>
<text text-anchor="middle" x="883" y="-168.4" font-family="Verdana" font-size="7.00" fill="#000000">3</text>
</g>
<!-- pymatlib.core.data_handler.check_strictly_increasing -->
<g id="node7" class="node">
<title>pymatlib.core.data_handler.check_strictly_increasing</title>
<polygon fill="#e5e5e5" stroke="#e5e5e5" points="923,-68 741,-68 741,-32 923,-32 923,-68"/>
<text text-anchor="middle" x="832" y="-56.4" font-family="Verdana" font-size="7.00" fill="#000000">pymatlib.core.data_handler.check_strictly_increasing</text>
<text text-anchor="middle" x="832" y="-48.4" font-family="Verdana" font-size="7.00" fill="#000000">calls: 6</text>
<text text-anchor="middle" x="832" y="-40.4" font-family="Verdana" font-size="7.00" fill="#000000">time: 0.003896s</text>
</g>
<!-- pymatlib.core.interpolators.prepare_interpolation_arrays&#45;&gt;pymatlib.core.data_handler.check_strictly_increasing -->
<g id="edge5" class="edge">
<title>pymatlib.core.interpolators.prepare_interpolation_arrays&#45;&gt;pymatlib.core.data_handler.check_strictly_increasing</title>
<path fill="none" stroke="#b2b2b2" d="M832,-111.69C832,-101.89 832,-89.42 832,-78.33"/>
<polygon fill="#b2b2b2" stroke="#b2b2b2" points="835.5,-78.26 832,-68.26 828.5,-78.26 835.5,-78.26"/>
<text text-anchor="middle" x="834" y="-88.4" font-family="Verdana" font-size="7.00" fill="#000000">6</text>
</g>
<!-- pymatlib.core.data_handler.check_equidistant -->
<g id="node8" class="node">
<title>pymatlib.core.data_handler.check_equidistant</title>
<polygon fill="#e5e5e5" stroke="#e5e5e5" points="540.5,-68 381.5,-68 381.5,-32 540.5,-32 540.5,-68"/>
<text text-anchor="middle" x="461" y="-56.4" font-family="Verdana" font-size="7.00" fill="#000000">pymatlib.core.data_handler.check_equidistant</text>
<text text-anchor="middle" x="461" y="-48.4" font-family="Verdana" font-size="7.00" fill="#000000">calls: 9</text>
<text text-anchor="middle" x="461" y="-40.4" font-family="Verdana" font-size="7.00" fill="#000000">time: 0.002802s</text>
</g>
<!-- pymatlib.core.interpolators.prepare_interpolation_arrays&#45;&gt;pymatlib.core.data_handler.check_equidistant -->
<g id="edge6" class="edge">
<title>pymatlib.core.interpolators.prepare_interpolation_arrays&#45;&gt;pymatlib.core.data_handler.check_equidistant</title>
<path fill="none" stroke="#b2b2b2" d="M751.04,-111.98C691.87,-99.54 611.62,-82.67 550.53,-69.82"/>
<polygon fill="#b2b2b2" stroke="#b2b2b2" points="551.02,-66.35 540.51,-67.72 549.58,-73.2 551.02,-66.35"/>
<text text-anchor="middle" x="659" y="-88.4" font-family="Verdana" font-size="7.00" fill="#000000">3</text>
</g>
<!-- pymatlib.core.interpolators.E_eq_from_E_neq -->
<g id="node12" class="node">
<title>pymatlib.core.interpolators.E_eq_from_E_neq</title>
<polygon fill="#e5e5e5" stroke="#e5e5e5" points="1099,-68 941,-68 941,-32 1099,-32 1099,-68"/>
<text text-anchor="middle" x="1020" y="-56.4" font-family="Verdana" font-size="7.00" fill="#000000">pymatlib.core.interpolators.E_eq_from_E_neq</text>
<text text-anchor="middle" x="1020" y="-48.4" font-family="Verdana" font-size="7.00" fill="#000000">calls: 2</text>
<text text-anchor="middle" x="1020" y="-40.4" font-family="Verdana" font-size="7.00" fill="#000000">time: 0.000497s</text>
</g>
<!-- pymatlib.core.interpolators.prepare_interpolation_arrays&#45;&gt;pymatlib.core.interpolators.E_eq_from_E_neq -->
<g id="edge7" class="edge">
<title>pymatlib.core.interpolators.prepare_interpolation_arrays&#45;&gt;pymatlib.core.interpolators.E_eq_from_E_neq</title>
<path fill="none" stroke="#b2b2b2" d="M873.26,-111.88C901.54,-100.15 939.25,-84.5 969.35,-72.01"/>
<polygon fill="#b2b2b2" stroke="#b2b2b2" points="970.94,-75.14 978.84,-68.08 968.26,-68.68 970.94,-75.14"/>
<text text-anchor="middle" x="933" y="-88.4" font-family="Verdana" font-size="7.00" fill="#000000">2</text>
</g>
<!-- pymatlib.core.interpolators.create_idx_mapping -->
<g id="node13" class="node">
<title>pymatlib.core.interpolators.create_idx_mapping</title>
<polygon fill="#e5e5e5" stroke="#e5e5e5" points="723,-68 559,-68 559,-32 723,-32 723,-68"/>
<text text-anchor="middle" x="641" y="-56.4" font-family="Verdana" font-size="7.00" fill="#000000">pymatlib.core.interpolators.create_idx_mapping</text>
<text text-anchor="middle" x="641" y="-48.4" font-family="Verdana" font-size="7.00" fill="#000000">calls: 2</text>
<text text-anchor="middle" x="641" y="-40.4" font-family="Verdana" font-size="7.00" fill="#000000">time: 0.001825s</text>
</g>
<!-- pymatlib.core.interpolators.prepare_interpolation_arrays&#45;&gt;pymatlib.core.interpolators.create_idx_mapping -->
<g id="edge8" class="edge">
<title>pymatlib.core.interpolators.prepare_interpolation_arrays&#45;&gt;pymatlib.core.interpolators.create_idx_mapping</title>
<path fill="none" stroke="#b2b2b2" d="M790.08,-111.88C761.35,-100.15 723.04,-84.5 692.46,-72.01"/>
<polygon fill="#b2b2b2" stroke="#b2b2b2" points="693.4,-68.62 682.82,-68.08 690.75,-75.1 693.4,-68.62"/>
<text text-anchor="middle" x="744" y="-88.4" font-family="Verdana" font-size="7.00" fill="#000000">2</text>
</g>
<!-- pymatlib.core.interpolators.InterpolationArrayContainer.generate -->
<g id="node9" class="node">
<title>pymatlib.core.interpolators.InterpolationArrayContainer.generate</title>
<polygon fill="#e4e5e5" stroke="#e4e5e5" points="303.5,-308 88.5,-308 88.5,-272 303.5,-272 303.5,-308"/>
<text text-anchor="middle" x="196" y="-296.4" font-family="Verdana" font-size="7.00" fill="#000000">pymatlib.core.interpolators.InterpolationArrayContainer.generate</text>
<text text-anchor="middle" x="196" y="-288.4" font-family="Verdana" font-size="7.00" fill="#000000">calls: 3</text>
<text text-anchor="middle" x="196" y="-280.4" font-family="Verdana" font-size="7.00" fill="#000000">time: 0.053865s</text>
</g>
<!-- pymatlib.core.interpolators.InterpolationArrayContainer._generate_binary_search -->
<g id="node10" class="node">
<title>pymatlib.core.interpolators.InterpolationArrayContainer._generate_binary_search</title>
<polygon fill="#e5e5e5" stroke="#e5e5e5" points="282,-228 16,-228 16,-192 282,-192 282,-228"/>
<text text-anchor="middle" x="149" y="-216.4" font-family="Verdana" font-size="7.00" fill="#000000">pymatlib.core.interpolators.InterpolationArrayContainer._generate_binary_search</text>
<text text-anchor="middle" x="149" y="-208.4" font-family="Verdana" font-size="7.00" fill="#000000">calls: 3</text>
<text text-anchor="middle" x="149" y="-200.4" font-family="Verdana" font-size="7.00" fill="#000000">time: 0.013519s</text>
</g>
<!-- pymatlib.core.interpolators.InterpolationArrayContainer.generate&#45;&gt;pymatlib.core.interpolators.InterpolationArrayContainer._generate_binary_search -->
<g id="edge9" class="edge">
<title>pymatlib.core.interpolators.InterpolationArrayContainer.generate&#45;&gt;pymatlib.core.interpolators.InterpolationArrayContainer._generate_binary_search</title>
<path fill="none" stroke="#b2b2b2" d="M185.57,-271.69C179.42,-261.49 171.53,-248.39 164.65,-236.97"/>
<polygon fill="#b2b2b2" stroke="#b2b2b2" points="167.56,-235.02 159.4,-228.26 161.56,-238.63 167.56,-235.02"/>
<text text-anchor="middle" x="175" y="-248.4" font-family="Verdana" font-size="7.00" fill="#000000">3</text>
</g>
<!-- pymatlib.core.interpolators.InterpolationArrayContainer._generate_double_lookup -->
<g id="node14" class="node">
<title>pymatlib.core.interpolators.InterpolationArrayContainer._generate_double_lookup</title>
<polygon fill="#e4e5e5" stroke="#e4e5e5" points="567.5,-228 300.5,-228 300.5,-192 567.5,-192 567.5,-228"/>
<text text-anchor="middle" x="434" y="-216.4" font-family="Verdana" font-size="7.00" fill="#000000">pymatlib.core.interpolators.InterpolationArrayContainer._generate_double_lookup</text>
<text text-anchor="middle" x="434" y="-208.4" font-family="Verdana" font-size="7.00" fill="#000000">calls: 2</text>
<text text-anchor="middle" x="434" y="-200.4" font-family="Verdana" font-size="7.00" fill="#000000">time: 0.032489s</text>
</g>
<!-- pymatlib.core.interpolators.InterpolationArrayContainer.generate&#45;&gt;pymatlib.core.interpolators.InterpolationArrayContainer._generate_double_lookup -->
<g id="edge10" class="edge">
<title>pymatlib.core.interpolators.InterpolationArrayContainer.generate&#45;&gt;pymatlib.core.interpolators.InterpolationArrayContainer._generate_double_lookup</title>
<path fill="none" stroke="#b2b2b2" d="M247.94,-271.98C284.5,-260 333.61,-243.9 372.2,-231.26"/>
<polygon fill="#b2b2b2" stroke="#b2b2b2" points="373.35,-234.56 381.76,-228.12 371.17,-227.91 373.35,-234.56"/>
<text text-anchor="middle" x="324" y="-248.4" font-family="Verdana" font-size="7.00" fill="#000000">2</text>
</g>
<!-- pymatlib.core.interpolators.&lt;genexpr&gt; -->
<g id="node11" class="node">
<title>pymatlib.core.interpolators.&lt;genexpr&gt;</title>
<polygon fill="#9998e5" stroke="#9998e5" points="216,-148 82,-148 82,-112 216,-112 216,-148"/>
<text text-anchor="middle" x="149" y="-136.4" font-family="Verdana" font-size="7.00" fill="#000000">pymatlib.core.interpolators.&lt;genexpr&gt;</text>
<text text-anchor="middle" x="149" y="-128.4" font-family="Verdana" font-size="7.00" fill="#000000">calls: 4,240</text>
<text text-anchor="middle" x="149" y="-120.4" font-family="Verdana" font-size="7.00" fill="#000000">time: 0.011805s</text>
</g>
<!-- pymatlib.core.interpolators.InterpolationArrayContainer._generate_binary_search&#45;&gt;pymatlib.core.interpolators.&lt;genexpr&gt; -->
<g id="edge11" class="edge">
<title>pymatlib.core.interpolators.InterpolationArrayContainer._generate_binary_search&#45;&gt;pymatlib.core.interpolators.&lt;genexpr&gt;</title>
<path fill="none" stroke="#a2aeb2" d="M149,-191.69C149,-181.89 149,-169.42 149,-158.33"/>
<polygon fill="#a2aeb2" stroke="#a2aeb2" points="152.5,-158.26 149,-148.26 145.5,-158.26 152.5,-158.26"/>
<text text-anchor="middle" x="156.5" y="-168.4" font-family="Verdana" font-size="7.00" fill="#000000">1104</text>
</g>
<!-- pymatlib.core.interpolators.InterpolationArrayContainer._generate_double_lookup&#45;&gt;pymatlib.core.interpolators.&lt;genexpr&gt; -->
<g id="edge12" class="edge">
<title>pymatlib.core.interpolators.InterpolationArrayContainer._generate_double_lookup&#45;&gt;pymatlib.core.interpolators.&lt;genexpr&gt;</title>
<path fill="none" stroke="#8691b2" d="M371.81,-191.98C327.46,-179.84 267.72,-163.49 221.25,-150.77"/>
<polygon fill="#8691b2" stroke="#8691b2" points="222.12,-147.38 211.55,-148.12 220.27,-154.14 222.12,-147.38"/>
<text text-anchor="middle" x="308" y="-168.4" font-family="Verdana" font-size="7.00" fill="#000000">3136</text>
</g>
<!-- pymatlib.core.data_handler.read_data_from_file -->
<g id="node15" class="node">
<title>pymatlib.core.data_handler.read_data_from_file</title>
<polygon fill="#c1d4e5" stroke="#c1d4e5" points="502,-308 338,-308 338,-272 502,-272 502,-308"/>
<text text-anchor="middle" x="420" y="-296.4" font-family="Verdana" font-size="7.00" fill="#000000">pymatlib.core.data_handler.read_data_from_file</text>
<text text-anchor="middle" x="420" y="-288.4" font-family="Verdana" font-size="7.00" fill="#000000">calls: 2</text>
<text text-anchor="middle" x="420" y="-280.4" font-family="Verdana" font-size="7.00" fill="#000000">time: 2.467327s</text>
</g>
<!-- pymatlib.core.interpolators.interpolate_property -->
<g id="node16" class="node">
<title>pymatlib.core.interpolators.interpolate_property</title>
<polygon fill="#e54ce5" stroke="#e54ce5" points="397.5,-148 234.5,-148 234.5,-112 397.5,-112 397.5,-148"/>
<text text-anchor="middle" x="316" y="-136.4" font-family="Verdana" font-size="7.00" fill="#000000">pymatlib.core.interpolators.interpolate_property</text>
<text text-anchor="middle" x="316" y="-128.4" font-family="Verdana" font-size="7.00" fill="#000000">calls: 6</text>
<text text-anchor="middle" x="316" y="-120.4" font-family="Verdana" font-size="7.00" fill="#000000">time: 10.489902s</text>
</g>
<!-- pymatlib.core.interpolators.interpolate_property&#45;&gt;pymatlib.core.data_handler.check_equidistant -->
<g id="edge13" class="edge">
<title>pymatlib.core.interpolators.interpolate_property&#45;&gt;pymatlib.core.data_handler.check_equidistant</title>
<path fill="none" stroke="#b2b2b2" d="M347.82,-111.88C369.16,-100.4 397.46,-85.18 420.42,-72.83"/>
<polygon fill="#b2b2b2" stroke="#b2b2b2" points="422.1,-75.9 429.25,-68.08 418.79,-69.73 422.1,-75.9"/>
<text text-anchor="middle" x="394" y="-88.4" font-family="Verdana" font-size="7.00" fill="#000000">6</text>
</g>
<!-- pymatlib.core.interpolators.interpolate_lookup -->
<g id="node17" class="node">
<title>pymatlib.core.interpolators.interpolate_lookup</title>
<polygon fill="#dc51e5" stroke="#dc51e5" points="174,-68 16,-68 16,-32 174,-32 174,-68"/>
<text text-anchor="middle" x="95" y="-56.4" font-family="Verdana" font-size="7.00" fill="#000000">pymatlib.core.interpolators.interpolate_lookup</text>
<text text-anchor="middle" x="95" y="-48.4" font-family="Verdana" font-size="7.00" fill="#000000">calls: 4</text>
<text text-anchor="middle" x="95" y="-40.4" font-family="Verdana" font-size="7.00" fill="#000000">time: 10.165162s</text>
</g>
<!-- pymatlib.core.interpolators.interpolate_property&#45;&gt;pymatlib.core.interpolators.interpolate_lookup -->
<g id="edge14" class="edge">
<title>pymatlib.core.interpolators.interpolate_property&#45;&gt;pymatlib.core.interpolators.interpolate_lookup</title>
<path fill="none" stroke="#ab3fb2" d="M267.77,-111.98C234.11,-100.1 188.99,-84.17 153.3,-71.58"/>
<polygon fill="#ab3fb2" stroke="#ab3fb2" points="154.1,-68.15 143.5,-68.12 151.77,-74.75 154.1,-68.15"/>
<text text-anchor="middle" x="214" y="-88.4" font-family="Verdana" font-size="7.00" fill="#000000">4</text>
</g>
<!-- pymatlib.core.interpolators.interpolate_equidistant -->
<g id="node18" class="node">
<title>pymatlib.core.interpolators.interpolate_equidistant</title>
<polygon fill="#e0e5e5" stroke="#e0e5e5" points="363.5,-68 192.5,-68 192.5,-32 363.5,-32 363.5,-68"/>
<text text-anchor="middle" x="278" y="-56.4" font-family="Verdana" font-size="7.00" fill="#000000">pymatlib.core.interpolators.interpolate_equidistant</text>
<text text-anchor="middle" x="278" y="-48.4" font-family="Verdana" font-size="7.00" fill="#000000">calls: 2</text>
<text text-anchor="middle" x="278" y="-40.4" font-family="Verdana" font-size="7.00" fill="#000000">time: 0.321995s</text>
</g>
<!-- pymatlib.core.interpolators.interpolate_property&#45;&gt;pymatlib.core.interpolators.interpolate_equidistant -->
<g id="edge15" class="edge">
<title>pymatlib.core.interpolators.interpolate_property&#45;&gt;pymatlib.core.interpolators.interpolate_equidistant</title>
<path fill="none" stroke="#aeb2b2" d="M307.57,-111.69C302.65,-101.59 296.34,-88.65 290.82,-77.31"/>
<polygon fill="#aeb2b2" stroke="#aeb2b2" points="293.94,-75.72 286.41,-68.26 287.64,-78.79 293.94,-75.72"/>
<text text-anchor="middle" x="300" y="-88.4" font-family="Verdana" font-size="7.00" fill="#000000">2</text>
</g>
<!-- pymatlib.core.interpolators.from_material&#45;&gt;pymatlib.core.interpolators.InterpolationArrayContainer.__init__ -->
<g id="edge16" class="edge">
<title>pymatlib.core.interpolators.from_material&#45;&gt;pymatlib.core.interpolators.InterpolationArrayContainer.__init__</title>
<path fill="none" stroke="#b2b2b2" d="M926,-271.69C926,-261.89 926,-249.42 926,-238.33"/>
<polygon fill="#b2b2b2" stroke="#b2b2b2" points="929.5,-238.26 926,-228.26 922.5,-238.26 929.5,-238.26"/>
<text text-anchor="middle" x="928" y="-248.4" font-family="Verdana" font-size="7.00" fill="#000000">1</text>
</g>
</g>
</svg>
