<?xml version="1.0" encoding="UTF-8" standalone="no"?>
<!DOCTYPE svg PUBLIC "-//W3C//DTD SVG 1.1//EN"
 "http://www.w3.org/Graphics/SVG/1.1/DTD/svg11.dtd">
<!-- Generated by graphviz version 2.50.0 (0)
 -->
<!-- Title: G Pages: 1 -->
<svg width="1192pt" height="448pt"
 viewBox="0.00 0.00 1192.00 448.00" xmlns="http://www.w3.org/2000/svg" xmlns:xlink="http://www.w3.org/1999/xlink">
<g id="graph0" class="graph" transform="scale(1 1) rotate(0) translate(4 444)">
<title>G</title>
<polygon fill="white" stroke="transparent" points="-4,4 -4,-444 1188,-444 1188,4 -4,4"/>
<text text-anchor="middle" x="592" y="-6.4" font-family="Verdana" font-size="7.00" fill="#000000" fill-opacity="0.498039">Generated by Python Call Graph v1.1.3</text>
<g id="clust1" class="cluster">
<title>cluster___main__</title>
<polygon fill="none" stroke="#000000" stroke-width="2" stroke-opacity="0.800000" points="1094,-361 1094,-432 1176,-432 1176,-361 1094,-361"/>
<text text-anchor="middle" x="1135" y="-420" font-family="Verdana" font-size="10.00">__main__</text>
</g>
<g id="clust2" class="cluster">
<title>cluster_pymatlib</title>
<polygon fill="none" stroke="#000000" stroke-width="2" stroke-opacity="0.800000" points="8,-24 8,-335 1107,-335 1107,-24 8,-24"/>
<text text-anchor="middle" x="557.5" y="-323" font-family="Verdana" font-size="10.00">pymatlib</text>
</g>
<!-- __main__ -->
<g id="node1" class="node">
<title>__main__</title>
<polygon fill="#e5e5e5" stroke="#e5e5e5" points="1168,-405 1102,-405 1102,-369 1168,-369 1168,-405"/>
<text text-anchor="middle" x="1135" y="-393.4" font-family="Verdana" font-size="7.00" fill="#000000">__main__</text>
<text text-anchor="middle" x="1135" y="-385.4" font-family="Verdana" font-size="7.00" fill="#000000">calls: 1</text>
<text text-anchor="middle" x="1135" y="-377.4" font-family="Verdana" font-size="7.00" fill="#000000">time: 0.000000s</text>
</g>
<!-- pymatlib.core.interpolators.prepare_interpolation_arrays -->
<g id="node3" class="node">
<title>pymatlib.core.interpolators.prepare_interpolation_arrays</title>
<polygon fill="#e4e5e5" stroke="#e4e5e5" points="986.5,-148 783.5,-148 783.5,-112 986.5,-112 986.5,-148"/>
<text text-anchor="middle" x="885" y="-136.4" font-family="Verdana" font-size="7.00" fill="#000000">pymatlib.core.interpolators.prepare_interpolation_arrays</text>
<text text-anchor="middle" x="885" y="-128.4" font-family="Verdana" font-size="7.00" fill="#000000">calls: 6</text>
<text text-anchor="middle" x="885" y="-120.4" font-family="Verdana" font-size="7.00" fill="#000000">time: 0.013559s</text>
</g>
<!-- __main__&#45;&gt;pymatlib.core.interpolators.prepare_interpolation_arrays -->
<g id="edge1" class="edge">
<title>__main__&#45;&gt;pymatlib.core.interpolators.prepare_interpolation_arrays</title>
<path fill="none" stroke="#b1b2b2" d="M1142.73,-368.9C1144.88,-363.31 1146.92,-357 1148,-351 1148.63,-347.5 1148.17,-346.55 1148,-343 1144.59,-273.66 1160.04,-237.95 1108,-192 1077.28,-164.88 1035.59,-149.69 996.58,-141.22"/>
<polygon fill="#b1b2b2" stroke="#b1b2b2" points="997.22,-137.78 986.72,-139.21 995.82,-144.64 997.22,-137.78"/>
<text text-anchor="middle" x="1147" y="-248.4" font-family="Verdana" font-size="7.00" fill="#000000">1</text>
</g>
<!-- pymatlib.core.codegen.interpolation_array_container.InterpolationArrayContainer.__init__ -->
<g id="node8" class="node">
<title>pymatlib.core.codegen.interpolation_array_container.InterpolationArrayContainer.__init__</title>
<polygon fill="#e4e5e5" stroke="#e4e5e5" points="1099,-228 791,-228 791,-192 1099,-192 1099,-228"/>
<text text-anchor="middle" x="945" y="-216.4" font-family="Verdana" font-size="7.00" fill="#000000">pymatlib.core.codegen.interpolation_array_container.InterpolationArrayContainer.__init__</text>
<text text-anchor="middle" x="945" y="-208.4" font-family="Verdana" font-size="7.00" fill="#000000">calls: 5</text>
<text text-anchor="middle" x="945" y="-200.4" font-family="Verdana" font-size="7.00" fill="#000000">time: 0.011329s</text>
</g>
<!-- __main__&#45;&gt;pymatlib.core.codegen.interpolation_array_container.InterpolationArrayContainer.__init__ -->
<g id="edge2" class="edge">
<title>__main__&#45;&gt;pymatlib.core.codegen.interpolation_array_container.InterpolationArrayContainer.__init__</title>
<path fill="none" stroke="#b1b2b2" d="M1135.68,-368.68C1135.69,-344.16 1132.08,-299.31 1108,-272 1091.67,-253.48 1069.15,-240.56 1046.05,-231.56"/>
<polygon fill="#b1b2b2" stroke="#b1b2b2" points="1047.09,-228.21 1036.49,-228.06 1044.68,-234.79 1047.09,-228.21"/>
<text text-anchor="middle" x="1135" y="-288.4" font-family="Verdana" font-size="7.00" fill="#000000">4</text>
</g>
<!-- pymatlib.core.codegen.interpolation_array_container.from_material -->
<g id="node14" class="node">
<title>pymatlib.core.codegen.interpolation_array_container.from_material</title>
<polygon fill="#e5e5e5" stroke="#e5e5e5" points="795,-308 557,-308 557,-272 795,-272 795,-308"/>
<text text-anchor="middle" x="676" y="-296.4" font-family="Verdana" font-size="7.00" fill="#000000">pymatlib.core.codegen.interpolation_array_container.from_material</text>
<text text-anchor="middle" x="676" y="-288.4" font-family="Verdana" font-size="7.00" fill="#000000">calls: 1</text>
<text text-anchor="middle" x="676" y="-280.4" font-family="Verdana" font-size="7.00" fill="#000000">time: 0.005928s</text>
</g>
<!-- __main__&#45;&gt;pymatlib.core.codegen.interpolation_array_container.from_material -->
<g id="edge3" class="edge">
<title>__main__&#45;&gt;pymatlib.core.codegen.interpolation_array_container.from_material</title>
<path fill="none" stroke="#b2b2b2" d="M1101.84,-382.82C1041.93,-376.65 911.96,-361.29 805,-335 779.67,-328.77 752.23,-319.75 729.19,-311.49"/>
<polygon fill="#b2b2b2" stroke="#b2b2b2" points="730.21,-308.14 719.61,-308.01 727.82,-314.71 730.21,-308.14"/>
<text text-anchor="middle" x="878" y="-345.4" font-family="Verdana" font-size="7.00" fill="#000000">1</text>
</g>
<!-- pymatlib.core.codegen.interpolation_array_container.InterpolationArrayContainer -->
<g id="node2" class="node">
<title>pymatlib.core.codegen.interpolation_array_container.InterpolationArrayContainer</title>
<polygon fill="#e5e5e5" stroke="#e5e5e5" points="1098.5,-308 813.5,-308 813.5,-272 1098.5,-272 1098.5,-308"/>
<text text-anchor="middle" x="956" y="-296.4" font-family="Verdana" font-size="7.00" fill="#000000">pymatlib.core.codegen.interpolation_array_container.InterpolationArrayContainer</text>
<text text-anchor="middle" x="956" y="-288.4" font-family="Verdana" font-size="7.00" fill="#000000">calls: 1</text>
<text text-anchor="middle" x="956" y="-280.4" font-family="Verdana" font-size="7.00" fill="#000000">time: 0.000010s</text>
</g>
<!-- pymatlib.core.data_handler.check_strictly_increasing -->
<g id="node4" class="node">
<title>pymatlib.core.data_handler.check_strictly_increasing</title>
<polygon fill="#e4e5e5" stroke="#e4e5e5" points="541.5,-68 356.5,-68 356.5,-32 541.5,-32 541.5,-68"/>
<text text-anchor="middle" x="449" y="-56.4" font-family="Verdana" font-size="7.00" fill="#000000">pymatlib.core.data_handler.check_strictly_increasing</text>
<text text-anchor="middle" x="449" y="-48.4" font-family="Verdana" font-size="7.00" fill="#000000">calls: 12</text>
<text text-anchor="middle" x="449" y="-40.4" font-family="Verdana" font-size="7.00" fill="#000000">time: 0.004378s</text>
</g>
<!-- pymatlib.core.interpolators.prepare_interpolation_arrays&#45;&gt;pymatlib.core.data_handler.check_strictly_increasing -->
<g id="edge4" class="edge">
<title>pymatlib.core.interpolators.prepare_interpolation_arrays&#45;&gt;pymatlib.core.data_handler.check_strictly_increasing</title>
<path fill="none" stroke="#b2b2b2" d="M789.86,-111.98C719.5,-99.39 623.8,-82.27 551.71,-69.37"/>
<polygon fill="#b2b2b2" stroke="#b2b2b2" points="552.16,-65.9 541.7,-67.58 550.92,-72.79 552.16,-65.9"/>
<text text-anchor="middle" x="684" y="-88.4" font-family="Verdana" font-size="7.00" fill="#000000">12</text>
</g>
<!-- pymatlib.core.data_handler.check_equidistant -->
<g id="node5" class="node">
<title>pymatlib.core.data_handler.check_equidistant</title>
<polygon fill="#e5e5e5" stroke="#e5e5e5" points="724.5,-68 559.5,-68 559.5,-32 724.5,-32 724.5,-68"/>
<text text-anchor="middle" x="642" y="-56.4" font-family="Verdana" font-size="7.00" fill="#000000">pymatlib.core.data_handler.check_equidistant</text>
<text text-anchor="middle" x="642" y="-48.4" font-family="Verdana" font-size="7.00" fill="#000000">calls: 12</text>
<text text-anchor="middle" x="642" y="-40.4" font-family="Verdana" font-size="7.00" fill="#000000">time: 0.003425s</text>
</g>
<!-- pymatlib.core.interpolators.prepare_interpolation_arrays&#45;&gt;pymatlib.core.data_handler.check_equidistant -->
<g id="edge5" class="edge">
<title>pymatlib.core.interpolators.prepare_interpolation_arrays&#45;&gt;pymatlib.core.data_handler.check_equidistant</title>
<path fill="none" stroke="#b2b2b2" d="M831.97,-111.98C794.64,-100 744.5,-83.9 705.1,-71.26"/>
<polygon fill="#b2b2b2" stroke="#b2b2b2" points="705.92,-67.84 695.33,-68.12 703.79,-74.51 705.92,-67.84"/>
<text text-anchor="middle" x="772" y="-88.4" font-family="Verdana" font-size="7.00" fill="#000000">6</text>
</g>
<!-- pymatlib.core.interpolators.E_eq_from_E_neq -->
<g id="node6" class="node">
<title>pymatlib.core.interpolators.E_eq_from_E_neq</title>
<polygon fill="#e5e5e5" stroke="#e5e5e5" points="907.5,-68 742.5,-68 742.5,-32 907.5,-32 907.5,-68"/>
<text text-anchor="middle" x="825" y="-56.4" font-family="Verdana" font-size="7.00" fill="#000000">pymatlib.core.interpolators.E_eq_from_E_neq</text>
<text text-anchor="middle" x="825" y="-48.4" font-family="Verdana" font-size="7.00" fill="#000000">calls: 4</text>
<text text-anchor="middle" x="825" y="-40.4" font-family="Verdana" font-size="7.00" fill="#000000">time: 0.000867s</text>
</g>
<!-- pymatlib.core.interpolators.prepare_interpolation_arrays&#45;&gt;pymatlib.core.interpolators.E_eq_from_E_neq -->
<g id="edge6" class="edge">
<title>pymatlib.core.interpolators.prepare_interpolation_arrays&#45;&gt;pymatlib.core.interpolators.E_eq_from_E_neq</title>
<path fill="none" stroke="#b2b2b2" d="M871.68,-111.69C863.68,-101.29 853.36,-87.87 844.46,-76.29"/>
<polygon fill="#b2b2b2" stroke="#b2b2b2" points="847.15,-74.05 838.28,-68.26 841.6,-78.32 847.15,-74.05"/>
<text text-anchor="middle" x="858" y="-88.4" font-family="Verdana" font-size="7.00" fill="#000000">4</text>
</g>
<!-- pymatlib.core.interpolators.create_idx_mapping -->
<g id="node7" class="node">
<title>pymatlib.core.interpolators.create_idx_mapping</title>
<polygon fill="#e5e5e5" stroke="#e5e5e5" points="1098.5,-68 925.5,-68 925.5,-32 1098.5,-32 1098.5,-68"/>
<text text-anchor="middle" x="1012" y="-56.4" font-family="Verdana" font-size="7.00" fill="#000000">pymatlib.core.interpolators.create_idx_mapping</text>
<text text-anchor="middle" x="1012" y="-48.4" font-family="Verdana" font-size="7.00" fill="#000000">calls: 4</text>
<text text-anchor="middle" x="1012" y="-40.4" font-family="Verdana" font-size="7.00" fill="#000000">time: 0.003213s</text>
</g>
<!-- pymatlib.core.interpolators.prepare_interpolation_arrays&#45;&gt;pymatlib.core.interpolators.create_idx_mapping -->
<g id="edge7" class="edge">
<title>pymatlib.core.interpolators.prepare_interpolation_arrays&#45;&gt;pymatlib.core.interpolators.create_idx_mapping</title>
<path fill="none" stroke="#b2b2b2" d="M912.87,-111.88C931.32,-100.55 955.69,-85.58 975.65,-73.32"/>
<polygon fill="#b2b2b2" stroke="#b2b2b2" points="977.5,-76.29 984.19,-68.08 973.84,-70.33 977.5,-76.29"/>
<text text-anchor="middle" x="954" y="-88.4" font-family="Verdana" font-size="7.00" fill="#000000">4</text>
</g>
<!-- pymatlib.core.codegen.interpolation_array_container.InterpolationArrayContainer.__init__&#45;&gt;pymatlib.core.interpolators.prepare_interpolation_arrays -->
<g id="edge8" class="edge">
<title>pymatlib.core.codegen.interpolation_array_container.InterpolationArrayContainer.__init__&#45;&gt;pymatlib.core.interpolators.prepare_interpolation_arrays</title>
<path fill="none" stroke="#b1b2b2" d="M931.68,-191.69C923.68,-181.29 913.36,-167.87 904.46,-156.29"/>
<polygon fill="#b1b2b2" stroke="#b1b2b2" points="907.15,-154.05 898.28,-148.26 901.6,-158.32 907.15,-154.05"/>
<text text-anchor="middle" x="918" y="-168.4" font-family="Verdana" font-size="7.00" fill="#000000">5</text>
</g>
<!-- pymatlib.core.codegen.interpolation_array_container.InterpolationArrayContainer.generate -->
<g id="node9" class="node">
<title>pymatlib.core.codegen.interpolation_array_container.InterpolationArrayContainer.generate</title>
<polygon fill="#dfe4e5" stroke="#dfe4e5" points="347,-308 31,-308 31,-272 347,-272 347,-308"/>
<text text-anchor="middle" x="189" y="-296.4" font-family="Verdana" font-size="7.00" fill="#000000">pymatlib.core.codegen.interpolation_array_container.InterpolationArrayContainer.generate</text>
<text text-anchor="middle" x="189" y="-288.4" font-family="Verdana" font-size="7.00" fill="#000000">calls: 5</text>
<text text-anchor="middle" x="189" y="-280.4" font-family="Verdana" font-size="7.00" fill="#000000">time: 0.089051s</text>
</g>
<!-- pymatlib.core.codegen.interpolation_array_container.InterpolationArrayContainer._generate_binary_search -->
<g id="node10" class="node">
<title>pymatlib.core.codegen.interpolation_array_container.InterpolationArrayContainer._generate_binary_search</title>
<polygon fill="#e3e5e5" stroke="#e3e5e5" points="772.5,-228 405.5,-228 405.5,-192 772.5,-192 772.5,-228"/>
<text text-anchor="middle" x="589" y="-216.4" font-family="Verdana" font-size="7.00" fill="#000000">pymatlib.core.codegen.interpolation_array_container.InterpolationArrayContainer._generate_binary_search</text>
<text text-anchor="middle" x="589" y="-208.4" font-family="Verdana" font-size="7.00" fill="#000000">calls: 5</text>
<text text-anchor="middle" x="589" y="-200.4" font-family="Verdana" font-size="7.00" fill="#000000">time: 0.023988s</text>
</g>
<!-- pymatlib.core.codegen.interpolation_array_container.InterpolationArrayContainer.generate&#45;&gt;pymatlib.core.codegen.interpolation_array_container.InterpolationArrayContainer._generate_binary_search -->
<g id="edge9" class="edge">
<title>pymatlib.core.codegen.interpolation_array_container.InterpolationArrayContainer.generate&#45;&gt;pymatlib.core.codegen.interpolation_array_container.InterpolationArrayContainer._generate_binary_search</title>
<path fill="none" stroke="#b1b2b2" d="M276.29,-271.98C339.81,-259.59 425.84,-242.82 491.59,-229.99"/>
<polygon fill="#b1b2b2" stroke="#b1b2b2" points="492.41,-233.4 501.55,-228.05 491.07,-226.53 492.41,-233.4"/>
<text text-anchor="middle" x="402" y="-248.4" font-family="Verdana" font-size="7.00" fill="#000000">5</text>
</g>
<!-- pymatlib.core.codegen.interpolation_array_container.InterpolationArrayContainer._generate_double_lookup -->
<g id="node12" class="node">
<title>pymatlib.core.codegen.interpolation_array_container.InterpolationArrayContainer._generate_double_lookup</title>
<polygon fill="#e1e5e5" stroke="#e1e5e5" points="387.5,-228 16.5,-228 16.5,-192 387.5,-192 387.5,-228"/>
<text text-anchor="middle" x="202" y="-216.4" font-family="Verdana" font-size="7.00" fill="#000000">pymatlib.core.codegen.interpolation_array_container.InterpolationArrayContainer._generate_double_lookup</text>
<text text-anchor="middle" x="202" y="-208.4" font-family="Verdana" font-size="7.00" fill="#000000">calls: 3</text>
<text text-anchor="middle" x="202" y="-200.4" font-family="Verdana" font-size="7.00" fill="#000000">time: 0.054860s</text>
</g>
<!-- pymatlib.core.codegen.interpolation_array_container.InterpolationArrayContainer.generate&#45;&gt;pymatlib.core.codegen.interpolation_array_container.InterpolationArrayContainer._generate_double_lookup -->
<g id="edge10" class="edge">
<title>pymatlib.core.codegen.interpolation_array_container.InterpolationArrayContainer.generate&#45;&gt;pymatlib.core.codegen.interpolation_array_container.InterpolationArrayContainer._generate_double_lookup</title>
<path fill="none" stroke="#afb2b2" d="M191.89,-271.69C193.52,-261.89 195.6,-249.42 197.44,-238.33"/>
<polygon fill="#afb2b2" stroke="#afb2b2" points="200.93,-238.7 199.12,-228.26 194.03,-237.55 200.93,-238.7"/>
<text text-anchor="middle" x="197" y="-248.4" font-family="Verdana" font-size="7.00" fill="#000000">3</text>
</g>
<!-- pymatlib.core.codegen.interpolation_array_container.&lt;genexpr&gt; -->
<g id="node11" class="node">
<title>pymatlib.core.codegen.interpolation_array_container.&lt;genexpr&gt;</title>
<polygon fill="#9998e5" stroke="#9998e5" points="474.5,-148 247.5,-148 247.5,-112 474.5,-112 474.5,-148"/>
<text text-anchor="middle" x="361" y="-136.4" font-family="Verdana" font-size="7.00" fill="#000000">pymatlib.core.codegen.interpolation_array_container.&lt;genexpr&gt;</text>
<text text-anchor="middle" x="361" y="-128.4" font-family="Verdana" font-size="7.00" fill="#000000">calls: 4,282</text>
<text text-anchor="middle" x="361" y="-120.4" font-family="Verdana" font-size="7.00" fill="#000000">time: 0.011877s</text>
</g>
<!-- pymatlib.core.codegen.interpolation_array_container.InterpolationArrayContainer._generate_binary_search&#45;&gt;pymatlib.core.codegen.interpolation_array_container.&lt;genexpr&gt; -->
<g id="edge11" class="edge">
<title>pymatlib.core.codegen.interpolation_array_container.InterpolationArrayContainer._generate_binary_search&#45;&gt;pymatlib.core.codegen.interpolation_array_container.&lt;genexpr&gt;</title>
<path fill="none" stroke="#a2aeb2" d="M539.25,-191.98C504.36,-180.05 457.57,-164.04 420.68,-151.42"/>
<polygon fill="#a2aeb2" stroke="#a2aeb2" points="421.64,-148.04 411.04,-148.12 419.37,-154.67 421.64,-148.04"/>
<text text-anchor="middle" x="489" y="-168.4" font-family="Verdana" font-size="7.00" fill="#000000">1124</text>
</g>
<!-- pymatlib.core.codegen.interpolation_array_container.InterpolationArrayContainer._generate_double_lookup&#45;&gt;pymatlib.core.codegen.interpolation_array_container.&lt;genexpr&gt; -->
<g id="edge12" class="edge">
<title>pymatlib.core.codegen.interpolation_array_container.InterpolationArrayContainer._generate_double_lookup&#45;&gt;pymatlib.core.codegen.interpolation_array_container.&lt;genexpr&gt;</title>
<path fill="none" stroke="#8591b2" d="M236.89,-191.88C260.5,-180.3 291.88,-164.91 317.17,-152.5"/>
<polygon fill="#8591b2" stroke="#8591b2" points="318.75,-155.62 326.19,-148.08 315.67,-149.34 318.75,-155.62"/>
<text text-anchor="middle" x="294" y="-168.4" font-family="Verdana" font-size="7.00" fill="#000000">3158</text>
</g>
<!-- pymatlib.core.data_handler.read_data_from_file -->
<g id="node13" class="node">
<title>pymatlib.core.data_handler.read_data_from_file</title>
<polygon fill="#e54ce5" stroke="#e54ce5" points="538.5,-308 365.5,-308 365.5,-272 538.5,-272 538.5,-308"/>
<text text-anchor="middle" x="452" y="-296.4" font-family="Verdana" font-size="7.00" fill="#000000">pymatlib.core.data_handler.read_data_from_file</text>
<text text-anchor="middle" x="452" y="-288.4" font-family="Verdana" font-size="7.00" fill="#000000">calls: 2</text>
<text text-anchor="middle" x="452" y="-280.4" font-family="Verdana" font-size="7.00" fill="#000000">time: 2.229705s</text>
</g>
<!-- pymatlib.core.codegen.interpolation_array_container.from_material&#45;&gt;pymatlib.core.codegen.interpolation_array_container.InterpolationArrayContainer.__init__ -->
<g id="edge13" class="edge">
<title>pymatlib.core.codegen.interpolation_array_container.from_material&#45;&gt;pymatlib.core.codegen.interpolation_array_container.InterpolationArrayContainer.__init__</title>
<path fill="none" stroke="#b1b2b2" d="M734.7,-271.98C776.38,-259.89 832.48,-243.63 876.25,-230.93"/>
<polygon fill="#b1b2b2" stroke="#b1b2b2" points="877.33,-234.27 885.96,-228.12 875.38,-227.54 877.33,-234.27"/>
<text text-anchor="middle" x="820" y="-248.4" font-family="Verdana" font-size="7.00" fill="#000000">1</text>
</g>
</g>
</svg>
